<svg xmlns="http://www.w3.org/2000/svg" viewBox="0 0 600 340"><polygon points="60,270 405,292 545,247 210,225" fill="#E8E8DE" stroke="none" stroke-width="1" stroke-linejoin="round"/><polygon points="164,76 432,76 432,265 164,265" fill="#D9DACE" stroke="#5C655B" stroke-width="1" stroke-linejoin="round"/><polygon points="432,76 450,65 450,254 432,265" fill="#B8BFB0" stroke="#5C655B" stroke-width="1" stroke-linejoin="round"/><polygon points="164,76 182,65 450,65 432,76" fill="#F0EEE5" stroke="#5C655B" stroke-width="1" stroke-linejoin="round"/><polygon points="160,76 436,76 436,81 160,81" fill="#EEECE1" stroke="#5C655B" stroke-width="1" stroke-linejoin="round"/><polygon points="179,98 204,98 204,126 179,126" fill="#87958B" stroke="#5C655B" stroke-width="1" stroke-linejoin="round"/><polygon points="181,100 202,100 202,124 181,124" fill="#E4D2AB" stroke="none" stroke-width="1" stroke-linejoin="round"/><polyline points="191.5,98 191.5,126" fill="none" stroke="#657366" stroke-width="0.7" stroke-linejoin="round"/><polygon points="222,98 247,98 247,126 222,126" fill="#87958B" stroke="#5C655B" stroke-width="1" stroke-linejoin="round"/><polygon points="224,100 245,100 245,124 224,124" fill="#E4D2AB" stroke="none" stroke-width="1" stroke-linejoin="round"/><polyline points="234.5,98 234.5,126" fill="none" stroke="#657366" stroke-width="0.7" stroke-linejoin="round"/><polygon points="265,98 290,98 290,126 265,126" fill="#87958B" stroke="#5C655B" stroke-width="1" stroke-linejoin="round"/><polygon points="267,100 288,100 288,124 267,124" fill="#E4D2AB" stroke="none" stroke-width="1" stroke-linejoin="round"/><polyline points="277.5,98 277.5,126" fill="none" stroke="#657366" stroke-width="0.7" stroke-linejoin="round"/><polygon points="308,98 333,98 333,126 308,126" fill="#87958B" stroke="#5C655B" stroke-width="1" stroke-linejoin="round"/><polygon points="310,100 331,100 331,124 310,124" fill="#E4D2AB" stroke="none" stroke-width="1" stroke-linejoin="round"/><polyline points="320.5,98 320.5,126" fill="none" stroke="#657366" stroke-width="0.7" stroke-linejoin="round"/><polygon points="351,98 376,98 376,126 351,126" fill="#87958B" stroke="#5C655B" stroke-width="1" stroke-linejoin="round"/><polygon points="353,100 374,100 374,124 353,124" fill="#E4D2AB" stroke="none" stroke-width="1" stroke-linejoin="round"/><polyline points="363.5,98 363.5,126" fill="none" stroke="#657366" stroke-width="0.7" stroke-linejoin="round"/><polygon points="394,98 419,98 419,126 394,126" fill="#87958B" stroke="#5C655B" stroke-width="1" stroke-linejoin="round"/><polygon points="396,100 417,100 417,124 396,124" fill="#E4D2AB" stroke="none" stroke-width="1" stroke-linejoin="round"/><polyline points="406.5,98 406.5,126" fill="none" stroke="#657366" stroke-width="0.7" stroke-linejoin="round"/><polygon points="179,141 204,141 204,169 179,169" fill="#87958B" stroke="#5C655B" stroke-width="1" stroke-linejoin="round"/><polygon points="181,143 202,143 202,167 181,167" fill="#E4D2AB" stroke="none" stroke-width="1" stroke-linejoin="round"/><polyline points="191.5,141 191.5,169" fill="none" stroke="#657366" stroke-width="0.7" stroke-linejoin="round"/><polygon points="222,141 247,141 247,169 222,169" fill="#87958B" stroke="#5C655B" stroke-width="1" stroke-linejoin="round"/><polygon points="224,143 245,143 245,167 224,167" fill="#E4D2AB" stroke="none" stroke-width="1" stroke-linejoin="round"/><polyline points="234.5,141 234.5,169" fill="none" stroke="#657366" stroke-width="0.7" stroke-linejoin="round"/><polygon points="265,141 290,141 290,169 265,169" fill="#87958B" stroke="#5C655B" stroke-width="1" stroke-linejoin="round"/><polygon points="267,143 288,143 288,167 267,167" fill="#E4D2AB" stroke="none" stroke-width="1" stroke-linejoin="round"/><polyline points="277.5,141 277.5,169" fill="none" stroke="#657366" stroke-width="0.7" stroke-linejoin="round"/><polygon points="308,141 333,141 333,169 308,169" fill="#87958B" stroke="#5C655B" stroke-width="1" stroke-linejoin="round"/><polygon points="310,143 331,143 331,167 310,167" fill="#E4D2AB" stroke="none" stroke-width="1" stroke-linejoin="round"/><polyline points="320.5,141 320.5,169" fill="none" stroke="#657366" stroke-width="0.7" stroke-linejoin="round"/><polygon points="351,141 376,141 376,169 351,169" fill="#87958B" stroke="#5C655B" stroke-width="1" stroke-linejoin="round"/><polygon points="353,143 374,143 374,167 353,167" fill="#E4D2AB" stroke="none" stroke-width="1" stroke-linejoin="round"/><polyline points="363.5,141 363.5,169" fill="none" stroke="#657366" stroke-width="0.7" stroke-linejoin="round"/><polygon points="394,141 419,141 419,169 394,169" fill="#87958B" stroke="#5C655B" stroke-width="1" stroke-linejoin="round"/><polygon points="396,143 417,143 417,167 396,167" fill="#E4D2AB" stroke="none" stroke-width="1" stroke-linejoin="round"/><polyline points="406.5,141 406.5,169" fill="none" stroke="#657366" stroke-width="0.7" stroke-linejoin="round"/><polygon points="179,184 204,184 204,212 179,212" fill="#87958B" stroke="#5C655B" stroke-width="1" stroke-linejoin="round"/><polygon points="181,186 202,186 202,210 181,210" fill="#E4D2AB" stroke="none" stroke-width="1" stroke-linejoin="round"/><polyline points="191.5,184 191.5,212" fill="none" stroke="#657366" stroke-width="0.7" stroke-linejoin="round"/><polygon points="222,184 247,184 247,212 222,212" fill="#87958B" stroke="#5C655B" stroke-width="1" stroke-linejoin="round"/><polygon points="224,186 245,186 245,210 224,210" fill="#E4D2AB" stroke="none" stroke-width="1" stroke-linejoin="round"/><polyline points="234.5,184 234.5,212" fill="none" stroke="#657366" stroke-width="0.7" stroke-linejoin="round"/><polygon points="265,184 290,184 290,212 265,212" fill="#87958B" stroke="#5C655B" stroke-width="1" stroke-linejoin="round"/><polygon points="267,186 288,186 288,210 267,210" fill="#E4D2AB" stroke="none" stroke-width="1" stroke-linejoin="round"/><polyline points="277.5,184 277.5,212" fill="none" stroke="#657366" stroke-width="0.7" stroke-linejoin="round"/><polygon points="308,184 333,184 333,212 308,212" fill="#87958B" stroke="#5C655B" stroke-width="1" stroke-linejoin="round"/><polygon points="310,186 331,186 331,210 310,210" fill="#E4D2AB" stroke="none" stroke-width="1" stroke-linejoin="round"/><polyline points="320.5,184 320.5,212" fill="none" stroke="#657366" stroke-width="0.7" stroke-linejoin="round"/><polygon points="351,184 376,184 376,212 351,212" fill="#87958B" stroke="#5C655B" stroke-width="1" stroke-linejoin="round"/><polygon points="353,186 374,186 374,210 353,210" fill="#E4D2AB" stroke="none" stroke-width="1" stroke-linejoin="round"/><polyline points="363.5,184 363.5,212" fill="none" stroke="#657366" stroke-width="0.7" stroke-linejoin="round"/><polygon points="394,184 419,184 419,212 394,212" fill="#87958B" stroke="#5C655B" stroke-width="1" stroke-linejoin="round"/><polygon points="396,186 417,186 417,210 396,210" fill="#E4D2AB" stroke="none" stroke-width="1" stroke-linejoin="round"/><polyline points="406.5,184 406.5,212" fill="none" stroke="#657366" stroke-width="0.7" stroke-linejoin="round"/><polygon points="277,222 319,222 319,265 277,265" fill="#87958B" stroke="#5C655B" stroke-width="1" stroke-linejoin="round"/><polygon points="279,224 317,224 317,263 279,263" fill="#E4D2AB" stroke="none" stroke-width="1" stroke-linejoin="round"/><polyline points="298.0,222 298.0,265" fill="none" stroke="#657366" stroke-width="0.7" stroke-linejoin="round"/><polyline points="298,222 298,265" fill="none" stroke="#657366" stroke-width="1" stroke-linejoin="round"/><polygon points="252,217 344,217 355,229 241,229" fill="#B3BBA7" stroke="#5C655B" stroke-width="1" stroke-linejoin="round"/><polyline points="182,83 182,218" fill="none" stroke="#ACB5A2" stroke-width="0.5" stroke-linejoin="round"/><polyline points="219,83 219,218" fill="none" stroke="#ACB5A2" stroke-width="0.5" stroke-linejoin="round"/><polyline points="256,83 256,218" fill="none" stroke="#ACB5A2" stroke-width="0.5" stroke-linejoin="round"/><polyline points="293,83 293,218" fill="none" stroke="#ACB5A2" stroke-width="0.5" stroke-linejoin="round"/><polyline points="330,83 330,218" fill="none" stroke="#ACB5A2" stroke-width="0.5" stroke-linejoin="round"/><polyline points="367,83 367,218" fill="none" stroke="#ACB5A2" stroke-width="0.5" stroke-linejoin="round"/><polyline points="404,83 404,218" fill="none" stroke="#ACB5A2" stroke-width="0.5" stroke-linejoin="round"/><polygon points="92,239 115,239 115,265 92,265" fill="#C8BEAA" stroke="#5C655B" stroke-width="1" stroke-linejoin="round"/><polygon points="89,234 118,234 118,242 89,242" fill="#A8B39A" stroke="none" stroke-width="1" stroke-linejoin="round"/><polyline points="94,237 90,217" fill="none" stroke="#8E9D7E" stroke-width="1" stroke-linejoin="round"/><polyline points="100,237 96,217" fill="none" stroke="#8E9D7E" stroke-width="1" stroke-linejoin="round"/><polyline points="107,237 103,217" fill="none" stroke="#8E9D7E" stroke-width="1" stroke-linejoin="round"/><polyline points="113,237 109,217" fill="none" stroke="#8E9D7E" stroke-width="1" stroke-linejoin="round"/><polygon points="488,239 511,239 511,265 488,265" fill="#C8BEAA" stroke="#5C655B" stroke-width="1" stroke-linejoin="round"/><polygon points="485,234 514,234 514,242 485,242" fill="#A8B39A" stroke="none" stroke-width="1" stroke-linejoin="round"/><polyline points="490,237 486,217" fill="none" stroke="#8E9D7E" stroke-width="1" stroke-linejoin="round"/><polyline points="496,237 492,217" fill="none" stroke="#8E9D7E" stroke-width="1" stroke-linejoin="round"/><polyline points="503,237 499,217" fill="none" stroke="#8E9D7E" stroke-width="1" stroke-linejoin="round"/><polyline points="509,237 505,217" fill="none" stroke="#8E9D7E" stroke-width="1" stroke-linejoin="round"/><polyline points="61,281 539,281" fill="none" stroke="#C2C6B7" stroke-width="1" stroke-linejoin="round"/><polyline points="55,300 132,300 286,300 458,300 544,300" fill="none" stroke="#697B62" stroke-width="2" stroke-linejoin="round"/><polyline points="177,300 177,264" fill="none" stroke="#78866D" stroke-width="1" stroke-linejoin="round"/><polyline points="352,300 352,264" fill="none" stroke="#78866D" stroke-width="1" stroke-linejoin="round"/><polyline points="458,300 458,264" fill="none" stroke="#78866D" stroke-width="1" stroke-linejoin="round"/><polygon points="36,289 57,289 57,311 36,311" fill="#D4D8C8" stroke="#5C655B" stroke-width="1" stroke-linejoin="round"/><polygon points="42,295 51,295 51,300 42,300" fill="#6F7E64" stroke="#5C655B" stroke-width="1" stroke-linejoin="round"/></svg>