<svg xmlns="http://www.w3.org/2000/svg" viewBox="0 0 600 340"><polygon points="60,270 405,292 545,247 210,225" fill="#E8E8DE" stroke="none" stroke-width="1" stroke-linejoin="round"/><polygon points="153,105 439,105 439,258 153,258" fill="#D9DACE" stroke="#5C655B" stroke-width="1" stroke-linejoin="round"/><polygon points="439,105 457,94 457,247 439,258" fill="#B8BFB0" stroke="#5C655B" stroke-width="1" stroke-linejoin="round"/><polygon points="153,105 171,94 457,94 439,105" fill="#F0EEE5" stroke="#5C655B" stroke-width="1" stroke-linejoin="round"/><polygon points="149,105 443,105 443,110 149,110" fill="#EEECE1" stroke="#5C655B" stroke-width="1" stroke-linejoin="round"/><polygon points="168,143 193,143 193,171 168,171" fill="#87958B" stroke="#5C655B" stroke-width="1" stroke-linejoin="round"/><polygon points="170,145 191,145 191,169 170,169" fill="#E4D2AB" stroke="none" stroke-width="1" stroke-linejoin="round"/><polyline points="180.5,143 180.5,171" fill="none" stroke="#657366" stroke-width="0.7" stroke-linejoin="round"/><polygon points="211,143 236,143 236,171 211,171" fill="#87958B" stroke="#5C655B" stroke-width="1" stroke-linejoin="round"/><polygon points="213,145 234,145 234,169 213,169" fill="#E4D2AB" stroke="none" stroke-width="1" stroke-linejoin="round"/><polyline points="223.5,143 223.5,171" fill="none" stroke="#657366" stroke-width="0.7" stroke-linejoin="round"/><polygon points="254,143 279,143 279,171 254,171" fill="#87958B" stroke="#5C655B" stroke-width="1" stroke-linejoin="round"/><polygon points="256,145 277,145 277,169 256,169" fill="#E4D2AB" stroke="none" stroke-width="1" stroke-linejoin="round"/><polyline points="266.5,143 266.5,171" fill="none" stroke="#657366" stroke-width="0.7" stroke-linejoin="round"/><polygon points="297,143 322,143 322,171 297,171" fill="#87958B" stroke="#5C655B" stroke-width="1" stroke-linejoin="round"/><polygon points="299,145 320,145 320,169 299,169" fill="#E4D2AB" stroke="none" stroke-width="1" stroke-linejoin="round"/><polyline points="309.5,143 309.5,171" fill="none" stroke="#657366" stroke-width="0.7" stroke-linejoin="round"/><polygon points="340,143 365,143 365,171 340,171" fill="#87958B" stroke="#5C655B" stroke-width="1" stroke-linejoin="round"/><polygon points="342,145 363,145 363,169 342,169" fill="#E4D2AB" stroke="none" stroke-width="1" stroke-linejoin="round"/><polyline points="352.5,143 352.5,171" fill="none" stroke="#657366" stroke-width="0.7" stroke-linejoin="round"/><polygon points="383,143 408,143 408,171 383,171" fill="#87958B" stroke="#5C655B" stroke-width="1" stroke-linejoin="round"/><polygon points="385,145 406,145 406,169 385,169" fill="#E4D2AB" stroke="none" stroke-width="1" stroke-linejoin="round"/><polyline points="395.5,143 395.5,171" fill="none" stroke="#657366" stroke-width="0.7" stroke-linejoin="round"/><polygon points="168,186 193,186 193,214 168,214" fill="#87958B" stroke="#5C655B" stroke-width="1" stroke-linejoin="round"/><polygon points="170,188 191,188 191,212 170,212" fill="#E4D2AB" stroke="none" stroke-width="1" stroke-linejoin="round"/><polyline points="180.5,186 180.5,214" fill="none" stroke="#657366" stroke-width="0.7" stroke-linejoin="round"/><polygon points="211,186 236,186 236,214 211,214" fill="#87958B" stroke="#5C655B" stroke-width="1" stroke-linejoin="round"/><polygon points="213,188 234,188 234,212 213,212" fill="#E4D2AB" stroke="none" stroke-width="1" stroke-linejoin="round"/><polyline points="223.5,186 223.5,214" fill="none" stroke="#657366" stroke-width="0.7" stroke-linejoin="round"/><polygon points="254,186 279,186 279,214 254,214" fill="#87958B" stroke="#5C655B" stroke-width="1" stroke-linejoin="round"/><polygon points="256,188 277,188 277,212 256,212" fill="#E4D2AB" stroke="none" stroke-width="1" stroke-linejoin="round"/><polyline points="266.5,186 266.5,214" fill="none" stroke="#657366" stroke-width="0.7" stroke-linejoin="round"/><polygon points="297,186 322,186 322,214 297,214" fill="#87958B" stroke="#5C655B" stroke-width="1" stroke-linejoin="round"/><polygon points="299,188 320,188 320,212 299,212" fill="#E4D2AB" stroke="none" stroke-width="1" stroke-linejoin="round"/><polyline points="309.5,186 309.5,214" fill="none" stroke="#657366" stroke-width="0.7" stroke-linejoin="round"/><polygon points="340,186 365,186 365,214 340,214" fill="#87958B" stroke="#5C655B" stroke-width="1" stroke-linejoin="round"/><polygon points="342,188 363,188 363,212 342,212" fill="#E4D2AB" stroke="none" stroke-width="1" stroke-linejoin="round"/><polyline points="352.5,186 352.5,214" fill="none" stroke="#657366" stroke-width="0.7" stroke-linejoin="round"/><polygon points="383,186 408,186 408,214 383,214" fill="#87958B" stroke="#5C655B" stroke-width="1" stroke-linejoin="round"/><polygon points="385,188 406,188 406,212 385,212" fill="#E4D2AB" stroke="none" stroke-width="1" stroke-linejoin="round"/><polyline points="395.5,186 395.5,214" fill="none" stroke="#657366" stroke-width="0.7" stroke-linejoin="round"/><polygon points="275,215 317,215 317,258 275,258" fill="#87958B" stroke="#5C655B" stroke-width="1" stroke-linejoin="round"/><polygon points="277,217 315,217 315,256 277,256" fill="#E4D2AB" stroke="none" stroke-width="1" stroke-linejoin="round"/><polyline points="296.0,215 296.0,258" fill="none" stroke="#657366" stroke-width="0.7" stroke-linejoin="round"/><polyline points="296,215 296,258" fill="none" stroke="#657366" stroke-width="1" stroke-linejoin="round"/><polygon points="250,210 342,210 353,222 239,222" fill="#B3BBA7" stroke="#5C655B" stroke-width="1" stroke-linejoin="round"/><polygon points="284,113 291,113 291,136 284,136" fill="#7F927B" stroke="none" stroke-width="1" stroke-linejoin="round"/><polygon points="276,121 299,121 299,128 276,128" fill="#7F927B" stroke="none" stroke-width="1" stroke-linejoin="round"/><polygon points="92,239 115,239 115,265 92,265" fill="#C8BEAA" stroke="#5C655B" stroke-width="1" stroke-linejoin="round"/><polygon points="89,234 118,234 118,242 89,242" fill="#A8B39A" stroke="none" stroke-width="1" stroke-linejoin="round"/><polyline points="94,237 90,217" fill="none" stroke="#8E9D7E" stroke-width="1" stroke-linejoin="round"/><polyline points="100,237 96,217" fill="none" stroke="#8E9D7E" stroke-width="1" stroke-linejoin="round"/><polyline points="107,237 103,217" fill="none" stroke="#8E9D7E" stroke-width="1" stroke-linejoin="round"/><polyline points="113,237 109,217" fill="none" stroke="#8E9D7E" stroke-width="1" stroke-linejoin="round"/><polygon points="488,239 511,239 511,265 488,265" fill="#C8BEAA" stroke="#5C655B" stroke-width="1" stroke-linejoin="round"/><polygon points="485,234 514,234 514,242 485,242" fill="#A8B39A" stroke="none" stroke-width="1" stroke-linejoin="round"/><polyline points="490,237 486,217" fill="none" stroke="#8E9D7E" stroke-width="1" stroke-linejoin="round"/><polyline points="496,237 492,217" fill="none" stroke="#8E9D7E" stroke-width="1" stroke-linejoin="round"/><polyline points="503,237 499,217" fill="none" stroke="#8E9D7E" stroke-width="1" stroke-linejoin="round"/><polyline points="509,237 505,217" fill="none" stroke="#8E9D7E" stroke-width="1" stroke-linejoin="round"/><polyline points="61,281 539,281" fill="none" stroke="#C2C6B7" stroke-width="1" stroke-linejoin="round"/><polyline points="55,300 132,300 286,300 458,300 544,300" fill="none" stroke="#697B62" stroke-width="2" stroke-linejoin="round"/><polyline points="177,300 177,264" fill="none" stroke="#78866D" stroke-width="1" stroke-linejoin="round"/><polyline points="352,300 352,264" fill="none" stroke="#78866D" stroke-width="1" stroke-linejoin="round"/><polyline points="458,300 458,264" fill="none" stroke="#78866D" stroke-width="1" stroke-linejoin="round"/><polygon points="36,289 57,289 57,311 36,311" fill="#D4D8C8" stroke="#5C655B" stroke-width="1" stroke-linejoin="round"/><polygon points="42,295 51,295 51,300 42,300" fill="#6F7E64" stroke="#5C655B" stroke-width="1" stroke-linejoin="round"/></svg>