<svg xmlns="http://www.w3.org/2000/svg" viewBox="0 0 600 340"><polygon points="60,270 405,292 545,247 210,225" fill="#E8E8DE" stroke="none" stroke-width="1" stroke-linejoin="round"/><polygon points="132,157 463,157 463,262 132,262" fill="#D9DACE" stroke="#5C655B" stroke-width="1" stroke-linejoin="round"/><polygon points="463,157 481,146 481,251 463,262" fill="#B8BFB0" stroke="#5C655B" stroke-width="1" stroke-linejoin="round"/><polygon points="132,157 150,146 481,146 463,157" fill="#F0EEE5" stroke="#5C655B" stroke-width="1" stroke-linejoin="round"/><polygon points="128,157 467,157 467,162 128,162" fill="#EEECE1" stroke="#5C655B" stroke-width="1" stroke-linejoin="round"/><polygon points="132,157 172,127 172,157" fill="#B7C4BF" stroke="#5C655B" stroke-width="1" stroke-linejoin="round"/><polygon points="137,155 168,132 168,150" fill="#849791" stroke="#5C655B" stroke-width="1" stroke-linejoin="round"/><polygon points="197,157 237,127 237,157" fill="#B7C4BF" stroke="#5C655B" stroke-width="1" stroke-linejoin="round"/><polygon points="202,155 233,132 233,150" fill="#849791" stroke="#5C655B" stroke-width="1" stroke-linejoin="round"/><polygon points="262,157 302,127 302,157" fill="#B7C4BF" stroke="#5C655B" stroke-width="1" stroke-linejoin="round"/><polygon points="267,155 298,132 298,150" fill="#849791" stroke="#5C655B" stroke-width="1" stroke-linejoin="round"/><polygon points="327,157 367,127 367,157" fill="#B7C4BF" stroke="#5C655B" stroke-width="1" stroke-linejoin="round"/><polygon points="332,155 363,132 363,150" fill="#849791" stroke="#5C655B" stroke-width="1" stroke-linejoin="round"/><polygon points="392,157 432,127 432,157" fill="#B7C4BF" stroke="#5C655B" stroke-width="1" stroke-linejoin="round"/><polygon points="397,155 428,132 428,150" fill="#849791" stroke="#5C655B" stroke-width="1" stroke-linejoin="round"/><polygon points="155,195 225,195 225,260 155,260" fill="#87958B" stroke="#5C655B" stroke-width="1" stroke-linejoin="round"/><polygon points="157,197 223,197 223,258 157,258" fill="#E4D2AB" stroke="none" stroke-width="1" stroke-linejoin="round"/><polyline points="190.0,195 190.0,260" fill="none" stroke="#657366" stroke-width="0.7" stroke-linejoin="round"/><polyline points="155,197 225,197" fill="none" stroke="#7E8B7A" stroke-width="0.7" stroke-linejoin="round"/><polyline points="155,202 225,202" fill="none" stroke="#7E8B7A" stroke-width="0.7" stroke-linejoin="round"/><polyline points="155,207 225,207" fill="none" stroke="#7E8B7A" stroke-width="0.7" stroke-linejoin="round"/><polyline points="155,212 225,212" fill="none" stroke="#7E8B7A" stroke-width="0.7" stroke-linejoin="round"/><polygon points="260,195 330,195 330,260 260,260" fill="#87958B" stroke="#5C655B" stroke-width="1" stroke-linejoin="round"/><polygon points="262,197 328,197 328,258 262,258" fill="#E4D2AB" stroke="none" stroke-width="1" stroke-linejoin="round"/><polyline points="295.0,195 295.0,260" fill="none" stroke="#657366" stroke-width="0.7" stroke-linejoin="round"/><polyline points="260,197 330,197" fill="none" stroke="#7E8B7A" stroke-width="0.7" stroke-linejoin="round"/><polyline points="260,202 330,202" fill="none" stroke="#7E8B7A" stroke-width="0.7" stroke-linejoin="round"/><polyline points="260,207 330,207" fill="none" stroke="#7E8B7A" stroke-width="0.7" stroke-linejoin="round"/><polyline points="260,212 330,212" fill="none" stroke="#7E8B7A" stroke-width="0.7" stroke-linejoin="round"/><polygon points="365,195 435,195 435,260 365,260" fill="#87958B" stroke="#5C655B" stroke-width="1" stroke-linejoin="round"/><polygon points="367,197 433,197 433,258 367,258" fill="#E4D2AB" stroke="none" stroke-width="1" stroke-linejoin="round"/><polyline points="400.0,195 400.0,260" fill="none" stroke="#657366" stroke-width="0.7" stroke-linejoin="round"/><polyline points="365,197 435,197" fill="none" stroke="#7E8B7A" stroke-width="0.7" stroke-linejoin="round"/><polyline points="365,202 435,202" fill="none" stroke="#7E8B7A" stroke-width="0.7" stroke-linejoin="round"/><polyline points="365,207 435,207" fill="none" stroke="#7E8B7A" stroke-width="0.7" stroke-linejoin="round"/><polyline points="365,212 435,212" fill="none" stroke="#7E8B7A" stroke-width="0.7" stroke-linejoin="round"/><polygon points="92,239 115,239 115,265 92,265" fill="#C8BEAA" stroke="#5C655B" stroke-width="1" stroke-linejoin="round"/><polygon points="89,234 118,234 118,242 89,242" fill="#A8B39A" stroke="none" stroke-width="1" stroke-linejoin="round"/><polyline points="94,237 90,217" fill="none" stroke="#8E9D7E" stroke-width="1" stroke-linejoin="round"/><polyline points="100,237 96,217" fill="none" stroke="#8E9D7E" stroke-width="1" stroke-linejoin="round"/><polyline points="107,237 103,217" fill="none" stroke="#8E9D7E" stroke-width="1" stroke-linejoin="round"/><polyline points="113,237 109,217" fill="none" stroke="#8E9D7E" stroke-width="1" stroke-linejoin="round"/><polygon points="488,239 511,239 511,265 488,265" fill="#C8BEAA" stroke="#5C655B" stroke-width="1" stroke-linejoin="round"/><polygon points="485,234 514,234 514,242 485,242" fill="#A8B39A" stroke="none" stroke-width="1" stroke-linejoin="round"/><polyline points="490,237 486,217" fill="none" stroke="#8E9D7E" stroke-width="1" stroke-linejoin="round"/><polyline points="496,237 492,217" fill="none" stroke="#8E9D7E" stroke-width="1" stroke-linejoin="round"/><polyline points="503,237 499,217" fill="none" stroke="#8E9D7E" stroke-width="1" stroke-linejoin="round"/><polyline points="509,237 505,217" fill="none" stroke="#8E9D7E" stroke-width="1" stroke-linejoin="round"/><polyline points="61,281 539,281" fill="none" stroke="#C2C6B7" stroke-width="1" stroke-linejoin="round"/><polyline points="55,300 132,300 286,300 458,300 544,300" fill="none" stroke="#697B62" stroke-width="2" stroke-linejoin="round"/><polyline points="177,300 177,264" fill="none" stroke="#78866D" stroke-width="1" stroke-linejoin="round"/><polyline points="352,300 352,264" fill="none" stroke="#78866D" stroke-width="1" stroke-linejoin="round"/><polyline points="458,300 458,264" fill="none" stroke="#78866D" stroke-width="1" stroke-linejoin="round"/><polygon points="36,289 57,289 57,311 36,311" fill="#D4D8C8" stroke="#5C655B" stroke-width="1" stroke-linejoin="round"/><polygon points="42,295 51,295 51,300 42,300" fill="#6F7E64" stroke="#5C655B" stroke-width="1" stroke-linejoin="round"/></svg>